PathFileType	4	(X/Y/Z)	D:\TRACE\v60_Jaco2_6-2-23\JustBodyDRS_Motion2_3-platform.trc
DataRate	CameraRate	NumFrames	NumMarkers	Units	OrigDataRate	OrigDataStartFrame	OrigNumFrames
100.00	100.00	      36	5	mm	100.00	3418	      6834
Frame#	Time	Left_Front			Right_Front			Left_Aft			Right_Aft			Post			
		X1	Y1	Z1	X2	Y2	Z2	X3	Y3	Z3	X4	Y4	Z4	X5	Y5	Z5	

3418	34.170	-754.23102	42.20298	-630.41034	815.95538	43.22353	-635.53101	-662.28882	-15.48236	503.18231	780.06818	-17.41738	512.21295	32.32883	1355.78870	-889.01068	
3419	34.180	-753.49451	43.68458	-630.05817	816.39050	44.91684	-635.16602	-661.63342	-16.54032	503.52075	780.47827	-18.53340	512.47986	32.48627	1357.57605	-885.32385	
3420	34.190	-752.79437	45.00045	-629.77814	817.09265	46.04333	-634.72162	-661.08978	-17.42132	503.79224	780.79596	-19.39054	512.87122	33.70482	1359.26599	-881.26501	
3421	34.200	-752.31390	46.12163	-629.41498	817.67389	47.15685	-634.42841	-660.63800	-18.37428	504.13458	781.27277	-20.08248	513.12482	34.02024	1360.88477	-877.71594	
3422	34.210	-751.94373	47.04974	-628.98053	818.25769	48.37880	-633.95129	-660.16388	-19.17754	504.34900	781.97998	-20.76052	513.38940	34.35479	1362.64185	-874.76270	
3423	34.220	-751.36328	48.60814	-628.67358	818.36133	49.66276	-633.77411	-659.76910	-20.03819	504.50595	782.64740	-21.74526	513.69299	34.45101	1364.35522	-871.69147	
3424	34.230	-751.37195	49.88235	-628.15161	818.95215	51.20498	-633.17670	-659.26758	-21.16421	504.98389	782.95172	-23.07118	513.97522	35.28002	1366.25610	-869.40765	
3425	34.240	-750.75629	51.26041	-627.82306	819.01569	51.90126	-632.89789	-658.97937	-22.14625	505.16080	782.99304	-23.89229	514.15839	35.57516	1368.23535	-866.96942	
3426	34.250	-750.60889	52.11148	-627.46277	819.56982	53.27436	-632.37628	-658.49835	-23.10174	505.30185	783.50470	-24.82267	514.33710	35.23523	1369.93286	-864.74817	
3427	34.260	-750.33795	53.54564	-627.01068	819.62817	54.42152	-632.22504	-658.58081	-23.77828	505.61780	783.34949	-26.05950	514.48663	35.79353	1371.33508	-861.92700	
3428	34.270	-750.26984	54.45022	-626.42670	819.88104	55.85522	-631.62000	-658.35071	-24.82799	505.82574	783.51965	-26.54244	514.87317	36.36577	1372.81750	-859.28619	
3429	34.280	-749.90656	55.66516	-626.26520	819.94910	56.77447	-631.58496	-658.03082	-25.56872	505.93954	783.94897	-27.67960	515.26447	36.26929	1374.21790	-856.46399	
3430	34.290	-749.87610	56.66505	-625.97479	820.05383	57.54947	-631.17999	-657.83820	-26.17231	506.05035	783.52625	-29.01494	514.79071	36.20667	1375.45972	-853.41315	
3431	34.300	-749.80975	57.63005	-625.89966	820.14734	58.51515	-630.76648	-658.17468	-26.37381	506.21771	783.59027	-29.25780	515.09625	36.65529	1376.54211	-850.51819	
3432	34.310	-749.94879	58.37933	-625.53528	820.13446	59.47861	-630.62543	-658.57251	-26.98352	506.79990	783.77155	-29.90296	515.50812	36.78676	1377.55896	-848.07935	
3433	34.320	-749.88281	58.96263	-625.16364	820.17035	60.15321	-630.17883	-658.51733	-27.79411	506.86575	783.99066	-30.39285	515.58813	36.29776	1378.89844	-846.14221	
3434	34.330	-750.05902	60.01342	-624.53876	820.11664	60.94969	-629.93268	-658.50745	-28.41930	506.82309	783.62305	-31.57282	515.25299	36.85943	1379.81836	-844.79413	
3435	34.340	-749.98566	61.28417	-624.47754	820.18872	62.07479	-629.75342	-658.19244	-29.14612	507.03738	783.74207	-32.21018	515.27832	36.69267	1381.30493	-843.88959	
3436	34.350	-750.11981	62.21338	-624.25226	820.10388	63.09560	-629.40985	-658.16357	-29.90923	507.28470	783.83679	-32.55933	515.72296	36.28914	1382.59668	-842.89862	
3437	34.360	-750.30511	62.94183	-623.88678	819.86340	63.73521	-629.05914	-658.34369	-30.39660	507.26730	783.73572	-32.95181	516.33771	36.62711	1383.91333	-841.26575	
3438	34.370	-750.60773	63.60537	-623.70148	819.38940	64.49306	-628.81464	-658.64178	-31.10921	507.37936	783.50940	-33.58193	516.85858	36.16059	1385.14966	-839.93079	
3439	34.380	-750.87604	64.62051	-623.36566	819.28607	65.56370	-628.43768	-658.86633	-31.66769	507.65808	783.29730	-34.32500	517.11804	36.08685	1386.26086	-837.73059	
3440	34.390	-751.20795	65.59833	-623.16211	818.87311	66.33773	-628.20325	-659.36053	-32.43868	508.00891	783.05603	-34.75190	516.98676	35.82685	1387.16272	-835.89508	
3441	34.400	-751.53632	66.26878	-623.02917	818.55298	66.88904	-628.12653	-659.62750	-32.86751	508.18414	781.97400	-36.52035	515.95770	34.71078	1388.00610	-833.19678	
3442	34.410	-751.92480	66.67393	-623.09888	818.25751	67.39235	-627.94965	-659.70337	-33.22417	508.25699	781.70050	-37.36536	515.91974	34.65150	1388.53943	-829.80902	
3443	34.420	-752.40485	67.14848	-622.42780	817.98413	67.89853	-627.67963	-660.03088	-33.83523	508.47418	781.23395	-37.59942	516.09430	34.62794	1388.86938	-827.33722	
3444	34.430	-752.65662	67.51625	-622.18787	817.61908	68.37452	-627.34753	-660.87726	-33.92543	508.21497	780.94958	-38.02269	516.04199	34.26184	1389.57727	-825.34375	
3445	34.440	-753.04626	67.92480	-621.99365	817.21313	68.95435	-627.21112	-661.18439	-34.19426	508.25986	780.34875	-38.35452	516.81372	33.41098	1390.24194	-823.87329	
3446	34.450	-753.28705	68.55242	-621.95654	816.63617	69.48527	-627.15454	-661.37445	-34.24526	508.15576	780.03796	-38.57307	516.82397	33.03502	1390.88757	-823.72229	
3447	34.460	-753.65704	68.93649	-621.88239	816.24615	69.98392	-627.09692	-661.24603	-35.78716	509.04645	779.66846	-38.66096	516.77246	32.40991	1391.87073	-824.08948	
3448	34.470	-754.17200	69.66045	-621.77698	815.68365	70.38419	-626.94867	-662.31067	-35.31958	508.28302	779.24261	-39.03318	516.85815	32.32947	1392.34387	-824.33655	
3449	34.480	-754.71893	70.10825	-621.71136	815.32178	70.63643	-626.78339	-662.92822	-35.52112	508.23892	778.94727	-39.22489	517.28052	32.20678	1393.10876	-824.76190	
3450	34.490	-755.36975	70.59402	-621.50958	814.85638	71.05099	-626.61200	-663.32623	-36.05356	508.56143	777.74384	-39.38013	518.80859	32.05675	1393.51062	-824.95276	
3451	34.500	-755.87677	70.96457	-621.44934	814.38031	71.37233	-626.48395	-663.84619	-36.29203	508.73862	777.67902	-39.60634	518.48047	31.81163	1394.26929	-824.54437	
3452	34.510	-756.17932	71.18056	-621.17297	813.90802	71.71674	-626.27246	-664.87805	-35.44466	508.06427	777.30951	-39.78765	518.29565	31.02946	1394.89038	-823.85535	
3453	34.520	-756.62952	71.55998	-621.04608	813.26483	72.03065	-626.14270	-665.08618	-36.11394	508.59653	776.26886	-39.75775	518.56012	30.05560	1395.40820	-823.07306	
